<svg xmlns="http://www.w3.org/2000/svg" width="1642.799" height="505.983" viewBox="0 0 1642.799 505.983">
  <g id="Drops_images" data-name="Drops images" transform="translate(-170.201 -163.787)">
    <text id="STUDNIE_GŁĘBINOWE_BIELSKO_BIAŁA" data-name="STUDNIE GŁĘBINOWE
BIELSKO BIAŁA" transform="translate(1813 345)" fill="#fff" font-size="130" font-family="RobotoMono-Bold, Roboto Mono" font-weight="700" letter-spacing="0.01em"><tspan x="-1347.016" y="0">STUDNIE GŁĘBINOWE</tspan><tspan x="-1029.765" y="200">BIELSKO BIAŁA</tspan></text>
    <g id="Drop_flower" data-name="Drop flower" transform="matrix(0.53, -0.848, 0.848, 0.53, -90.365, 569.082)">
      <g id="drop" transform="translate(565.153 374.449) rotate(173)">
        <g id="Group_2" data-name="Group 2">
          <g id="Group_1" data-name="Group 1">
            <path id="Path_1" data-name="Path 1" d="M133.2,32.465c-6.8-10-12.8-19.2-18.4-27.6a12.174,12.174,0,0,0-3.2-3.2,10.421,10.421,0,0,0-14.4,3.2c-5.2,8.4-11.2,17.2-18.4,27.6C47.2,78.865,0,148.865,0,188.865a105.524,105.524,0,0,0,31.2,74.8,106.867,106.867,0,0,0,74.8,30.8,106.528,106.528,0,0,0,106-106C212,148.465,164.8,78.865,133.2,32.465Zm33.2,216.4a84.6,84.6,0,0,1-60.4,24.8,86.285,86.285,0,0,1-60.4-24.8,84.6,84.6,0,0,1-24.8-60.4c0-33.6,45.2-100.4,75.2-144.8,3.6-5.2,6.8-10.4,10-14.8,3.2,4.4,6.4,9.6,10,14.8,30,44.8,75.2,111.2,75.2,144.8A86.285,86.285,0,0,1,166.4,248.865Z" fill="#b3812e"/>
          </g>
        </g>
        <g id="Group_4" data-name="Group 4" transform="translate(125.92 181.24)">
          <g id="Group_3" data-name="Group 3">
            <path id="Path_2" data-name="Path 2" d="M42.08.025a10.255,10.255,0,0,0-10.8,9.6,51.49,51.49,0,0,1-7.6,24.4,48.613,48.613,0,0,1-18.4,17.6c-4.8,2.8-6.8,9.2-4,14,3.2,5.6,9.6,7.2,14.4,4.4a69.313,69.313,0,0,0,25.6-24.8,68.07,68.07,0,0,0,10.4-34.4A10.255,10.255,0,0,0,42.08.025Z" fill="#b3812e"/>
          </g>
        </g>
      </g>
      <g id="drop-2" data-name="drop" transform="translate(510.618 288.281) rotate(114)">
        <g id="Group_2-2" data-name="Group 2">
          <g id="Group_1-2" data-name="Group 1">
            <path id="Path_1-2" data-name="Path 1" d="M133.2,32.465c-6.8-10-12.8-19.2-18.4-27.6a12.174,12.174,0,0,0-3.2-3.2,10.421,10.421,0,0,0-14.4,3.2c-5.2,8.4-11.2,17.2-18.4,27.6C47.2,78.865,0,148.865,0,188.865a105.524,105.524,0,0,0,31.2,74.8,106.867,106.867,0,0,0,74.8,30.8,106.528,106.528,0,0,0,106-106C212,148.465,164.8,78.865,133.2,32.465Zm33.2,216.4a84.6,84.6,0,0,1-60.4,24.8,86.285,86.285,0,0,1-60.4-24.8,84.6,84.6,0,0,1-24.8-60.4c0-33.6,45.2-100.4,75.2-144.8,3.6-5.2,6.8-10.4,10-14.8,3.2,4.4,6.4,9.6,10,14.8,30,44.8,75.2,111.2,75.2,144.8A86.285,86.285,0,0,1,166.4,248.865Z" fill="#ffcc75"/>
          </g>
        </g>
        <g id="Group_4-2" data-name="Group 4" transform="translate(125.92 181.24)">
          <g id="Group_3-2" data-name="Group 3">
            <path id="Path_2-2" data-name="Path 2" d="M42.08.025a10.255,10.255,0,0,0-10.8,9.6,51.49,51.49,0,0,1-7.6,24.4,48.613,48.613,0,0,1-18.4,17.6c-4.8,2.8-6.8,9.2-4,14,3.2,5.6,9.6,7.2,14.4,4.4a69.313,69.313,0,0,0,25.6-24.8,68.07,68.07,0,0,0,10.4-34.4A10.255,10.255,0,0,0,42.08.025Z" fill="#ffcc75"/>
          </g>
        </g>
      </g>
      <g id="drop-3" data-name="drop" transform="matrix(0.545, 0.839, -0.839, 0.545, 409.748, 290.145)">
        <g id="Group_2-3" data-name="Group 2">
          <g id="Group_1-3" data-name="Group 1">
            <path id="Path_1-3" data-name="Path 1" d="M133.2,32.465c-6.8-10-12.8-19.2-18.4-27.6a12.174,12.174,0,0,0-3.2-3.2,10.421,10.421,0,0,0-14.4,3.2c-5.2,8.4-11.2,17.2-18.4,27.6C47.2,78.865,0,148.865,0,188.865a105.524,105.524,0,0,0,31.2,74.8,106.867,106.867,0,0,0,74.8,30.8,106.528,106.528,0,0,0,106-106C212,148.465,164.8,78.865,133.2,32.465Zm33.2,216.4a84.6,84.6,0,0,1-60.4,24.8,86.285,86.285,0,0,1-60.4-24.8,84.6,84.6,0,0,1-24.8-60.4c0-33.6,45.2-100.4,75.2-144.8,3.6-5.2,6.8-10.4,10-14.8,3.2,4.4,6.4,9.6,10,14.8,30,44.8,75.2,111.2,75.2,144.8A86.285,86.285,0,0,1,166.4,248.865Z" fill="#1d68b3"/>
          </g>
        </g>
        <g id="Group_4-3" data-name="Group 4" transform="translate(125.92 181.24)">
          <g id="Group_3-3" data-name="Group 3">
            <path id="Path_2-3" data-name="Path 2" d="M42.08.025a10.255,10.255,0,0,0-10.8,9.6,51.49,51.49,0,0,1-7.6,24.4,48.613,48.613,0,0,1-18.4,17.6c-4.8,2.8-6.8,9.2-4,14,3.2,5.6,9.6,7.2,14.4,4.4a69.313,69.313,0,0,0,25.6-24.8,68.07,68.07,0,0,0,10.4-34.4A10.255,10.255,0,0,0,42.08.025Z" fill="#1d68b3"/>
          </g>
        </g>
      </g>
      <g id="drop-4" data-name="drop" transform="translate(357 374)">
        <g id="Group_2-4" data-name="Group 2">
          <g id="Group_1-4" data-name="Group 1">
            <path id="Path_1-4" data-name="Path 1" d="M133.2,32.465c-6.8-10-12.8-19.2-18.4-27.6a12.174,12.174,0,0,0-3.2-3.2,10.421,10.421,0,0,0-14.4,3.2c-5.2,8.4-11.2,17.2-18.4,27.6C47.2,78.865,0,148.865,0,188.865a105.524,105.524,0,0,0,31.2,74.8,106.867,106.867,0,0,0,74.8,30.8,106.528,106.528,0,0,0,106-106C212,148.465,164.8,78.865,133.2,32.465Zm33.2,216.4a84.6,84.6,0,0,1-60.4,24.8,86.285,86.285,0,0,1-60.4-24.8,84.6,84.6,0,0,1-24.8-60.4c0-33.6,45.2-100.4,75.2-144.8,3.6-5.2,6.8-10.4,10-14.8,3.2,4.4,6.4,9.6,10,14.8,30,44.8,75.2,111.2,75.2,144.8A86.285,86.285,0,0,1,166.4,248.865Z" fill="#8cc6ff"/>
          </g>
        </g>
        <g id="Group_4-4" data-name="Group 4" transform="translate(125.92 181.24)">
          <g id="Group_3-4" data-name="Group 3">
            <path id="Path_2-4" data-name="Path 2" d="M42.08.025a10.255,10.255,0,0,0-10.8,9.6,51.49,51.49,0,0,1-7.6,24.4,48.613,48.613,0,0,1-18.4,17.6c-4.8,2.8-6.8,9.2-4,14,3.2,5.6,9.6,7.2,14.4,4.4a69.313,69.313,0,0,0,25.6-24.8,68.07,68.07,0,0,0,10.4-34.4A10.255,10.255,0,0,0,42.08.025Z" fill="#8cc6ff"/>
          </g>
        </g>
      </g>
    </g>
  </g>
</svg>
